<mxfile host="Electron" modified="2025-02-20T08:21:03.574Z" agent="Mozilla/5.0 (Windows NT 10.0; Win64; x64) AppleWebKit/537.36 (KHTML, like Gecko) draw.io/24.1.0 Chrome/120.0.6099.109 Electron/28.1.0 Safari/537.36" etag="BK6SBSq-FZqkcSBV0L_F" version="24.1.0" type="device">
  <diagram name="Page-1" id="SE0Pd3vN2Rl-mlT4ESwE">
    <mxGraphModel dx="955" dy="565" grid="1" gridSize="10" guides="1" tooltips="1" connect="1" arrows="1" fold="1" page="1" pageScale="1" pageWidth="850" pageHeight="1100" math="0" shadow="0">
      <root>
        <mxCell id="0" />
        <mxCell id="1" parent="0" />
        <mxCell id="AqEpgeyO68xMrJSdumvh-1" value="-10" style="ellipse;whiteSpace=wrap;html=1;aspect=fixed;" vertex="1" parent="1">
          <mxGeometry x="170" y="170" width="30" height="30" as="geometry" />
        </mxCell>
        <mxCell id="AqEpgeyO68xMrJSdumvh-2" value="" style="endArrow=none;html=1;rounded=0;entryX=0;entryY=1;entryDx=0;entryDy=0;exitX=1;exitY=0;exitDx=0;exitDy=0;" edge="1" parent="1" source="AqEpgeyO68xMrJSdumvh-3" target="AqEpgeyO68xMrJSdumvh-1">
          <mxGeometry width="50" height="50" relative="1" as="geometry">
            <mxPoint x="100" y="260" as="sourcePoint" />
            <mxPoint x="120" y="230" as="targetPoint" />
          </mxGeometry>
        </mxCell>
        <mxCell id="AqEpgeyO68xMrJSdumvh-3" value="9" style="ellipse;whiteSpace=wrap;html=1;aspect=fixed;" vertex="1" parent="1">
          <mxGeometry x="130" y="250" width="30" height="30" as="geometry" />
        </mxCell>
        <mxCell id="AqEpgeyO68xMrJSdumvh-4" value="" style="endArrow=none;html=1;rounded=0;entryX=1;entryY=1;entryDx=0;entryDy=0;exitX=0.5;exitY=0;exitDx=0;exitDy=0;" edge="1" parent="1" source="AqEpgeyO68xMrJSdumvh-5" target="AqEpgeyO68xMrJSdumvh-1">
          <mxGeometry width="50" height="50" relative="1" as="geometry">
            <mxPoint x="204.39" y="281.59" as="sourcePoint" />
            <mxPoint x="199.99660171779817" y="189.99660171779828" as="targetPoint" />
          </mxGeometry>
        </mxCell>
        <mxCell id="AqEpgeyO68xMrJSdumvh-5" value="20" style="ellipse;whiteSpace=wrap;html=1;aspect=fixed;" vertex="1" parent="1">
          <mxGeometry x="214.39" y="249.99999999999997" width="30" height="30" as="geometry" />
        </mxCell>
        <mxCell id="AqEpgeyO68xMrJSdumvh-6" value="" style="endArrow=none;html=1;rounded=0;entryX=0;entryY=1;entryDx=0;entryDy=0;exitX=0.5;exitY=0;exitDx=0;exitDy=0;" edge="1" parent="1" source="AqEpgeyO68xMrJSdumvh-7" target="AqEpgeyO68xMrJSdumvh-5">
          <mxGeometry width="50" height="50" relative="1" as="geometry">
            <mxPoint x="180" y="350" as="sourcePoint" />
            <mxPoint x="250" y="400" as="targetPoint" />
          </mxGeometry>
        </mxCell>
        <mxCell id="AqEpgeyO68xMrJSdumvh-7" value="15" style="ellipse;whiteSpace=wrap;html=1;aspect=fixed;" vertex="1" parent="1">
          <mxGeometry x="184.39" y="330" width="30" height="30" as="geometry" />
        </mxCell>
        <mxCell id="AqEpgeyO68xMrJSdumvh-9" value="7" style="ellipse;whiteSpace=wrap;html=1;aspect=fixed;" vertex="1" parent="1">
          <mxGeometry x="270" y="330" width="30" height="30" as="geometry" />
        </mxCell>
        <mxCell id="AqEpgeyO68xMrJSdumvh-10" value="" style="endArrow=none;html=1;rounded=0;exitX=1;exitY=1;exitDx=0;exitDy=0;entryX=0;entryY=0;entryDx=0;entryDy=0;" edge="1" parent="1" source="AqEpgeyO68xMrJSdumvh-5" target="AqEpgeyO68xMrJSdumvh-9">
          <mxGeometry width="50" height="50" relative="1" as="geometry">
            <mxPoint x="200" y="450" as="sourcePoint" />
            <mxPoint x="250" y="400" as="targetPoint" />
          </mxGeometry>
        </mxCell>
        <mxCell id="AqEpgeyO68xMrJSdumvh-11" value="Input" style="text;html=1;align=center;verticalAlign=middle;whiteSpace=wrap;rounded=0;" vertex="1" parent="1">
          <mxGeometry x="40" y="170" width="60" height="30" as="geometry" />
        </mxCell>
        <mxCell id="AqEpgeyO68xMrJSdumvh-12" value="" style="endArrow=classic;html=1;rounded=0;" edge="1" parent="1">
          <mxGeometry width="50" height="50" relative="1" as="geometry">
            <mxPoint x="280" y="280" as="sourcePoint" />
            <mxPoint x="470" y="280" as="targetPoint" />
          </mxGeometry>
        </mxCell>
        <mxCell id="AqEpgeyO68xMrJSdumvh-13" value="Ouput" style="text;html=1;align=center;verticalAlign=middle;whiteSpace=wrap;rounded=0;" vertex="1" parent="1">
          <mxGeometry x="480" y="170" width="60" height="30" as="geometry" />
        </mxCell>
        <mxCell id="AqEpgeyO68xMrJSdumvh-14" value="We want to find a path which has sum of path is maximum&lt;div&gt;and return it.&lt;/div&gt;" style="text;html=1;align=left;verticalAlign=top;whiteSpace=wrap;rounded=0;" vertex="1" parent="1">
          <mxGeometry x="480" y="230" width="320" height="90" as="geometry" />
        </mxCell>
        <mxCell id="AqEpgeyO68xMrJSdumvh-15" value="How to we simulation the solution which solve this problem?&lt;div&gt;&lt;br&gt;&lt;/div&gt;&lt;div&gt;Please discuss sometime about the solution:&lt;br&gt;When we traversal a tree, we visit a node and we will see it as a the begin of path.&lt;/div&gt;&lt;div&gt;&amp;nbsp;&lt;/div&gt;&lt;div&gt;So the next node for it, they are adjancen vertices of it.&lt;/div&gt;&lt;div&gt;We understand that a path can expand by next adjances which is adjance vertice of previous adjances.&lt;/div&gt;&lt;div&gt;&lt;br&gt;&lt;/div&gt;&lt;div&gt;&lt;br&gt;&lt;/div&gt;&lt;div&gt;*** The basic idea, I will scan all paths from the input tree, and I will save it into a dictinary and this dictionary will have the key is sum of path and the value is path&lt;/div&gt;&lt;div&gt;&lt;br&gt;&lt;/div&gt;&lt;div&gt;var dictPaths = {}&lt;/div&gt;&lt;div&gt;&lt;br&gt;&lt;/div&gt;&lt;div&gt;&lt;div style=&quot;background-color: rgb(255, 255, 255); font-family: Consolas, &amp;quot;Courier New&amp;quot;, monospace; font-size: 13px; line-height: 18px; white-space: pre;&quot;&gt;&lt;div&gt;&lt;span style=&quot;color: #0000ff;&quot;&gt;var&lt;/span&gt; &lt;span style=&quot;color: #795e26;&quot;&gt;maxPathSum&lt;/span&gt; = &lt;span style=&quot;color: #0000ff;&quot;&gt;function&lt;/span&gt;(&lt;span style=&quot;color: #001080;&quot;&gt;root&lt;/span&gt;) {&lt;/div&gt;&lt;div&gt;&amp;nbsp; &amp;nbsp; &lt;span style=&quot;color: #af00db;&quot;&gt;if&lt;/span&gt; (!&lt;span style=&quot;color: #001080;&quot;&gt;root&lt;/span&gt;) &lt;span style=&quot;color: #af00db;&quot;&gt;return&lt;/span&gt; &lt;span style=&quot;color: #098658;&quot;&gt;0&lt;/span&gt;;&lt;/div&gt;&lt;div&gt;&amp;nbsp; &amp;nbsp; &lt;span style=&quot;color: #008000;&quot;&gt;// reset all global variable for new test-case&lt;/span&gt;&lt;/div&gt;&lt;div&gt;&amp;nbsp; &amp;nbsp; &lt;span style=&quot;color: #001080;&quot;&gt;dictPaths&lt;/span&gt; = {};&lt;/div&gt;&lt;div&gt;&amp;nbsp; &amp;nbsp; &lt;span style=&quot;color: #001080;&quot;&gt;travels&lt;/span&gt; = {};&lt;/div&gt;&lt;div&gt;&amp;nbsp; &amp;nbsp; &lt;span style=&quot;color: #795e26;&quot;&gt;scanPath&lt;/span&gt;(&lt;span style=&quot;color: #001080;&quot;&gt;root&lt;/span&gt;);&lt;/div&gt;&lt;div&gt;&amp;nbsp; &amp;nbsp; &lt;span style=&quot;color: #795e26;&quot;&gt;dfs&lt;/span&gt;(&lt;span style=&quot;color: #001080;&quot;&gt;root&lt;/span&gt;);&lt;/div&gt;&lt;div&gt;&amp;nbsp; &amp;nbsp; &lt;span style=&quot;color: #0000ff;&quot;&gt;const&lt;/span&gt; &lt;span style=&quot;color: #0070c1;&quot;&gt;allSumPaths&lt;/span&gt; = &lt;span style=&quot;color: #267f99;&quot;&gt;Object&lt;/span&gt;.&lt;span style=&quot;color: #795e26;&quot;&gt;keys&lt;/span&gt;(&lt;span style=&quot;color: #001080;&quot;&gt;dictPaths&lt;/span&gt;).&lt;span style=&quot;color: #795e26;&quot;&gt;sort&lt;/span&gt;(&lt;/div&gt;&lt;div&gt;&amp;nbsp; &amp;nbsp; &amp;nbsp; &amp;nbsp; (&lt;span style=&quot;color: #001080;&quot;&gt;a&lt;/span&gt;, &lt;span style=&quot;color: #001080;&quot;&gt;b&lt;/span&gt;) &lt;span style=&quot;color: #0000ff;&quot;&gt;=&amp;gt;&lt;/span&gt; &lt;span style=&quot;color: #267f99;&quot;&gt;Number&lt;/span&gt;(&lt;span style=&quot;color: #001080;&quot;&gt;a&lt;/span&gt;) - &lt;span style=&quot;color: #267f99;&quot;&gt;Number&lt;/span&gt;(&lt;span style=&quot;color: #001080;&quot;&gt;b&lt;/span&gt;)&lt;/div&gt;&lt;div&gt;&amp;nbsp; &amp;nbsp; );&lt;/div&gt;&lt;div&gt;&amp;nbsp; &amp;nbsp; &lt;span style=&quot;color: #af00db;&quot;&gt;return&lt;/span&gt; &lt;span style=&quot;color: #001080;&quot;&gt;allSumPaths&lt;/span&gt;[&lt;span style=&quot;color: #098658;&quot;&gt;0&lt;/span&gt;];&lt;/div&gt;&lt;div&gt;};&lt;/div&gt;&lt;/div&gt;&lt;/div&gt;&lt;div&gt;&lt;br&gt;&lt;/div&gt;&lt;div&gt;&amp;nbsp;&lt;/div&gt;&lt;div&gt;function scanPaths(root, memoPaths=[]) {&lt;/div&gt;&lt;div&gt;&lt;span style=&quot;white-space: pre;&quot;&gt;&#x9;&lt;/span&gt;&lt;br&gt;&lt;/div&gt;&lt;div&gt;};&lt;/div&gt;&lt;div&gt;&lt;br&gt;&lt;/div&gt;&lt;div&gt;&lt;br&gt;&lt;/div&gt;&lt;div&gt;&lt;br&gt;&lt;/div&gt;" style="text;html=1;align=left;verticalAlign=top;whiteSpace=wrap;rounded=0;" vertex="1" parent="1">
          <mxGeometry x="40" y="410" width="370" height="30" as="geometry" />
        </mxCell>
      </root>
    </mxGraphModel>
  </diagram>
</mxfile>
